<svg xmlns="http://www.w3.org/2000/svg" viewBox="0 0 430 137.4"><title>SVA_primary_sig_black</title><path d="M407.37,89c-.27,17.31,9.48,30.45,28.19,30.45,8.87,0,15.13-3,18.09-5.57,2.18-1.83,1.31-3.31.26-5.22l-3.3-6.18c-1.65-3.13-3.92-2.17-5.66-1a15.12,15.12,0,0,1-8.7,2.61c-7.48,0-11.31-6.88-11.31-15.14S428,73.76,436.6,73.76c7.22,0,11,3.74,11,3.74a13.38,13.38,0,0,0,4.18-5c3.13-5.57,1.13-8-.44-9.3s-6.79-4.62-16.53-4.62c-18.44,0-27.14,13.23-27.49,30.46" transform="translate(-25 -28.74)" style="fill:#663399"/><path d="M372.25,109.69c-.09,3.83,0,8.88,6.18,8.88H385c8,0,6-5.74,5.65-10-.35-3.39-.17-10-.26-12.62C393.21,91.42,405.66,70,408,65.75c1.56-2.87-.18-6.35-3.31-6.35h-7.92c-5.57,0-6.87,1.57-7.83,4.7-1.13,3.57-5,13.14-6.87,17.75h-.52c-1.39-3.57-5.48-13.31-6.7-17.23-.79-2.35-1.83-5.22-6.44-5.22h-7.31c-6.18,0-4.44,4.7-3.56,6.44,1.56,2.87,12.43,23.93,15,29.67,0,2.43-.18,9.14-.26,14.18" transform="translate(-25 -28.74)" style="fill:#663399"/><path d="M298,109.69c-.09,3.83,0,8.88,6.09,8.88h6.7c8.09,0,6-5.74,5.74-10-.17-2.35-1.39-18.36-1.39-24.18H316c4.26,6.78,17,23.05,17,26.79.17,3.39.87,7.4,6.18,7.4h6.44c8,0,5.91-5.74,5.65-10-.43-6.17.52-36.11.7-40.37.08-3.83,0-8.79-6.09-8.79h-6.36c-5.91,0-6.17,2.27-6.08,4.35,0,1.31.69,18.8.87,22.71h-.79L314,59.4h-9.49c-7.83,0-6,5.22-5.91,9.49,0,2.87-.18,31-.61,40.8" transform="translate(-25 -28.74)" style="fill:#663399"/><path d="M176,109.87c-1.39-6.44-9.66-40.46-10.44-43.86-.88-3.82-2.18-6.61-7.66-6.61H144c-7.13,0-7.31,3-8.26,7.14-.7,3.3-9,33.58-11.66,43.76-1,3.66-1,8.27,3.3,8.27h8.44c5.31,0,6-2.61,6.18-6.88.08-.61.61-2.52,1.3-5h14.36c.7,2.17,1.13,4.08,1.47,5,.62,2.09,1,6.79,7.23,6.79h6C178.12,118.57,176.91,114.13,176,109.87Zm-30.89-15c2-9.22,4.26-19.83,5-24.1h.52l5.05,24.1Z" transform="translate(-25 -28.74)" style="fill:#663399"/><path d="M84.18,112c.78,3.83,2.18,6.62,7.66,6.62h13.92c7,0,7.31-3,8.26-7.14.79-3.3,8.7-33.58,11.4-43.76,1-3.66,1-8.27-3.31-8.27h-8.35c-5.56,0-5.65,2.7-6.26,6.88-.43,2.69-6.52,32.8-7.83,40.89h-.52l-8.27-41c-.43-2.09-1.13-6.79-7.22-6.79H77.57c-5.65,0-4.44,4.44-3.57,8.7,1.48,6.44,9.31,40.46,10.18,43.85" transform="translate(-25 -28.74)" style="fill:#663399"/><path d="M32,117.35a49.36,49.36,0,0,0,14.09,2.09c13.75,0,24.54-6.79,23.67-20.1C69.32,92.12,66,86.2,54.54,83.15l-5.75-1.56c-4-1-6-2-6.17-4.44-.09-2.87,2.17-4.52,6.26-4.52A36.3,36.3,0,0,1,63.24,76a23.75,23.75,0,0,0,2.08-4.44c2.18-7,1.05-8.87-3.56-10.7a41.76,41.76,0,0,0-14.53-2.35c-13.31,0-23,7.4-22.19,20.19C25.56,88.2,30.79,92.29,39,94.29l5.31,1.31c5.22,1.3,7,2.87,7.22,5.22.09,2.7-2.35,4.53-6.26,4.53a32.39,32.39,0,0,1-15.58-3.75,13.45,13.45,0,0,0-2.52,5.14c-1.83,5.56-1.31,8.43,4.87,10.61" transform="translate(-25 -28.74)" style="fill:#663399"/><path d="M397.53,155.23c-1.33-.37-2.55-.86-2.58-2,0-1.41,1-2.39,2.94-2.39a9.1,9.1,0,0,1,4.53,1.29,3.19,3.19,0,0,0,.65-.93c.55-1.22.18-1.82-.7-2.29a10,10,0,0,0-4.6-1c-3.93,0-6.43,2.26-6.38,5.44.05,2.76,1.92,4,4.24,4.6l2.24.57c1.8.45,2.73,1.23,2.73,2.27,0,1.46-1.22,2.45-3.23,2.45a7.48,7.48,0,0,1-4.65-1.46,2.33,2.33,0,0,0-.78,1.14,1.62,1.62,0,0,0,1,2.32,11.11,11.11,0,0,0,4.55.89c4,0,6.87-2,6.8-5.47-.06-2.26-1.18-3.93-4.51-4.84Zm-9.89-7.08c-1.49.13-12.05,0-12.05,0-.91,0-1,.16-1,.83l0,1.2c0,.72.23,1.09,1,1,.37,0,3.39,0,4.17,0,0,3-.08,12-.13,12.81s0,1.84,1.22,1.84h1.33c1.58,0,1.12-1.22,1.12-2.1,0-.53-.08-8.93,0-12.52l4.24,0c.91,0,1-.16,1-.83l0-1.12c0-.7-.19-1.17-.94-1.12m-19.65,6a3.12,3.12,0,0,1-3.41,3.36h-3.05c0-1,0-5.26,0-6.75h3.08a3.17,3.17,0,0,1,3.38,3.39m3.51,0c.06-3.52-2.28-6-6.71-6h-5.36c-1.59,0-1.35,1.2-1.35,2.08,0,.62,0,11.68-.05,13.74,0,.81,0,1.87,1.19,1.87h1.3c.89,0,1.17-.36,1.09-1.48-.08-.73,0-3.83,0-4.48h2.92l2.94,4.48a2.81,2.81,0,0,0,2.66,1.75c1.45,0,2.36-.71,1.87-2.79a1.55,1.55,0,0,1-1.59-.7l-2.55-3.34a5.44,5.44,0,0,0,3.64-5.17m-25.42-3.49h.16c.28,1.15,1.53,5.21,2.6,8.67h-5.36c1.06-3.39,2.31-7.42,2.6-8.67m-2.76-1c-.26.93-4.27,12.69-4.89,14.83-.24.78,0,1.4.73,1.4h1.48c.91,0,1.14-.47,1.33-1.37.07-.32.44-1.33.91-2.69h6.56c.51,1.28.8,2.37,1,2.76s.23,1.3,1.46,1.3h1.06c.94,0,1-.59.84-1.48-.34-1.38-4.32-13.84-4.53-14.73a1.71,1.71,0,0,0-1.8-1.48h-2.34c-1.22,0-1.54.6-1.77,1.46m-25.4,16.23h8.87c.91,0,1.07-.26,1-.93,0-.37,0-.7,0-1.07,0-.73-.34-1.17-1.09-1.09s-4.61.08-6.56.08c-.06-2.5,0-9.06.05-11.71,0-.68,0-1.2,0-1.41,0-.73-.11-1.56-1.17-1.56h-1.43c-.81,0-1,.36-1,.94,0,.83.05,1.58.05,2.39,0,2.27,0,7.73,0,10.8v2c0,.73.15,1.58,1.22,1.58m-13.19-15.22h.15c.29,1.15,1.54,5.21,2.6,8.67h-5.36c1.07-3.39,2.32-7.42,2.61-8.67m-2.76-1c-.27.93-4.27,12.69-4.9,14.83-.23.78,0,1.4.73,1.4h1.49c.91,0,1.14-.47,1.32-1.37.08-.32.44-1.33.91-2.69h6.56c.52,1.28.81,2.37,1,2.76s.23,1.3,1.45,1.3h1.07c.93,0,1-.59.83-1.48-.34-1.38-4.32-13.84-4.53-14.73a1.7,1.7,0,0,0-1.79-1.48h-2.34c-1.23,0-1.54.6-1.77,1.46m-8.54,8c.05-1.22.13-7,.15-7.91s0-1.59-1.24-1.59H291c-1.38,0-1.09.94-1.09,1.82,0,.68,0,4.32,0,7.65,0,3.59-.86,5.52-3.64,5.52s-3.7-2-3.73-5.46c0-3.26,0-7.06.08-7.94s0-1.59-1.22-1.59h-1.33c-1.4,0-1.14.94-1.11,1.82,0,.63-.06,4.24,0,7.71.1,5.15,1.43,8.43,7.34,8.43,5.57,0,6.92-3.36,7.13-8.46m-25.35-2.45c-1.33-.37-2.55-.86-2.58-2,0-1.41,1-2.39,2.94-2.39A9.1,9.1,0,0,1,273,152.1a3.19,3.19,0,0,0,.65-.93c.55-1.22.19-1.82-.7-2.29a10,10,0,0,0-4.61-1c-3.93,0-6.42,2.26-6.37,5.44.05,2.76,1.93,4,4.24,4.6l2.24.57c1.79.45,2.73,1.23,2.73,2.27,0,1.46-1.22,2.45-3.23,2.45a7.5,7.5,0,0,1-4.66-1.46,2.35,2.35,0,0,0-.77,1.14,1.62,1.62,0,0,0,1,2.32,11.06,11.06,0,0,0,4.55.89c4,0,6.87-2,6.79-5.47-.05-2.26-1.17-3.93-4.5-4.84Zm-14.6-4.94c0,2.29.13,11.66.05,13.71,0,.81,0,1.87,1.22,1.87h1.3c1.59,0,1.17-1.22,1.1-2.1,0-1.31-.08-11.27,0-13.74,0-.81,0-1.85-1.2-1.85h-1.33c-1.58,0-1.14,1.22-1.14,2.11m-9.21,14.13c.28-.94,4.06-12.7,4.68-14.84.23-.78,0-1.4-.75-1.4h-1.43c-1.1,0-1.12.47-1.36,1.38-.21.75-3.46,11.66-3.93,13.84h-.18c-.44-2-3.67-12.83-4-13.92-.13-.44-.21-1.3-1.43-1.3h-1.07c-1,0-1,.6-.83,1.48.36,1.38,4.08,13.84,4.32,14.73a1.7,1.7,0,0,0,1.82,1.48h2.34a1.62,1.62,0,0,0,1.8-1.45m-32.09-14.14c0,.55,0,8.67,0,12.42,0,.68,0,1.22,0,1.51,0,1,.13,1.66,1.22,1.66h1.2c1.14,0,1.2-.72,1.2-1.71,0-.63-.11-2.6-.11-5.11,1.67,0,5.23-.05,6,0s.86-.18.86-.86v-1c0-.7-.32-.91-1.07-.91-1.35,0-4.55,0-5.75,0l0-5H222c.81,0,1.23-.13,1.23-1v-.94c0-.7-.26-1.14-1.07-1.14h-8.74c-1.49,0-1.25.83-1.25,2.1m-8.3,6.72c0,3.18-1.07,6.17-4.33,6.17s-4.35-2.94-4.37-6.17,1.07-6.12,4.37-6.12,4.33,2.84,4.33,6.12m3.64,0c0-5.16-2.84-9.11-8-9.11-5.41,0-7.93,4-8,9.11s2.58,9.11,8,9.11c5.15,0,7.88-3.93,7.94-9.11m-35.42,8.84H181c.91,0,1.07-.26,1-.93,0-.37,0-.7,0-1.07,0-.73-.34-1.17-1.1-1.09s-4.6.08-6.55.08c0-2.5,0-9.06.05-11.71,0-.68,0-1.2,0-1.41,0-.73-.1-1.56-1.17-1.56h-1.43c-.81,0-1,.36-1,.94,0,.83.05,1.58.05,2.39,0,2.27,0,7.73,0,10.8v2c0,.73.15,1.58,1.22,1.58M162.6,157c0,3.18-1.07,6.17-4.32,6.17s-4.35-2.94-4.37-6.17,1.06-6.12,4.37-6.12,4.32,2.84,4.32,6.12m3.64,0c0-5.16-2.83-9.11-8-9.11-5.42,0-7.94,4-8,9.11s2.57,9.11,8,9.11c5.15,0,7.88-3.93,7.93-9.11m-23.37,0c0,3.18-1.06,6.17-4.32,6.17s-4.35-2.94-4.37-6.17,1.06-6.12,4.37-6.12,4.32,2.84,4.32,6.12m3.64,0c0-5.16-2.83-9.11-8-9.11-5.41,0-7.93,4-8,9.11s2.57,9.11,8,9.11c5.15,0,7.88-3.93,7.93-9.11m-24.17-6.74v5.52h-8.2c0-2.79,0-5.37,0-5.78,0-.81,0-1.85-1.19-1.85h-1.31c-1.61,0-1.17,1.22-1.14,2.11,0,.6,0,11.65-.08,13.71,0,.81,0,1.87,1.2,1.87H113c1.58,0,1.19-1.22,1.14-2.1,0-.5,0-2.76,0-5.29h8.22c0,2.4,0,4.71,0,5.52s0,1.87,1.22,1.87h1.3c1.62,0,1.17-1.22,1.15-2.1-.11-1.31,0-12.83.07-13.74s0-1.85-1.19-1.85h-1.33c-1.61,0-1.14,1.22-1.14,2.11m-17.13-1.15a8,8,0,0,0-4.76-1.22c-5.54,0-8.22,3.93-8.25,9.11s2.73,9.11,8.33,9.11a8.12,8.12,0,0,0,5-1.43c.47-.4.29-.73.06-1.13l-.68-1.19c-.36-.65-.78-.44-1.17-.18a5.24,5.24,0,0,1-3.13.91c-3.12,0-4.86-2.71-4.86-6.12s1.48-6.09,4.89-6.09a5.81,5.81,0,0,1,3.93,1.27,2.46,2.46,0,0,0,.81-.86c.83-1.19.28-1.87-.16-2.18m-23.32,6.09c-1.32-.37-2.55-.86-2.57-2,0-1.41,1-2.39,2.94-2.39a9.15,9.15,0,0,1,4.53,1.29,3.19,3.19,0,0,0,.65-.93c.54-1.22.18-1.82-.71-2.29a10,10,0,0,0-4.6-1c-3.93,0-6.43,2.26-6.38,5.44.06,2.76,1.93,4,4.24,4.6l2.24.57C84,159,85,159.76,85,160.8c0,1.46-1.23,2.45-3.23,2.45a7.5,7.5,0,0,1-4.66-1.46,2.33,2.33,0,0,0-.78,1.14,1.62,1.62,0,0,0,1,2.32,11.12,11.12,0,0,0,4.56.89c4,0,6.86-2,6.79-5.47,0-2.26-1.17-3.93-4.5-4.84Z" transform="translate(-25 -28.74)" style="fill:#663399"/><path d="M232.34,29.62a11.93,11.93,0,0,1,4.77,2.78.61.61,0,0,0-.23.88c.84.18,1.76.65,1.9,1.43,0,0-.14.15-.09.23s.09.14.23.1l.1-.1c-.19.1-.1.38-.1.56-.41.84,1.2,2,.18,2.69.15.14.1.55.47.42,0,.55-.79.41-1.11.46-.05.09,0,.13.09.23H239l-.66.18.74.23c.24.33-.36-.23-.55.14,0,.28,0-.14-.09-.14-.37.42,0,.89-.56,1l.56.65c-4.17,1.07-8.1-1.11-11.58-3.1-.69.51-.08,1.2-.41,1.9-.33.55-1,1.16-.56,1.9l-.32-.14c-.23.18-.09.46-.14.69-.23-.69.93-1.76.23-2.45.33-.1.33-.56.46-.79-.09,0-.13-.14-.23-.09l-.23.18c0-.09-.05-.13-.09-.18h-.23c.37.83-.74,1.71-.33,2.64-1.06,1,.79,2.13-.7,3-.08.64-1.19,1.06-.78,1.75s1.2,0,1.57.56c1.26.51,2,1.62,3.11,2.45l.55-.23a25.37,25.37,0,0,1,3.66-4.86c.37.28.74,0,1-.23.22-.83,1.38-1.3,2.21-1.57,2.27-.37,4.54-.37,6.44.92,4-1.66,7.26-3.93,11.24-5.69,3.38-1.11,7.42-3.57,11.11-1.34.6.83,1.86,1.71,1.2,3-.78,1.53-1.06,2.78-2.31,3.89a2.51,2.51,0,0,1-1.48,1.9c.37.6-.32.46-.09,1.11-.79-.14-.93.6-1.34,1a.44.44,0,0,1,.33.56c4.85-.28,11.1-3.15,15.22.74,2.31,2.13,2.83,5.41,3,8.24-.13.6-.09,1.53-.88,1.67.51,0,.42.74.42,1.2-.24.92-1.44.46-1.3,1.57-.37.19-1.16.65-1.25,0l-.32.33,1.75,2.36-.08.09a5.61,5.61,0,0,1,.87,1.67c-.14.32-.51.18-.55.55l.55.1c-.28.46.2,1.25-.42,1.57-.82.14-.69,1-1.34,1.34,1.67-.27,4.59-.55,6.11.65,2.6,4.49,7.78,6.16,11.12,10.33a4.53,4.53,0,0,1,.32,3.56c-.83.65-.83,2-1.9,1.9-.27-.1-.46.18-.65.32.05.14.24.14.33.14v.19a10.78,10.78,0,0,1-2.87,1.48c-.75.23-2.69-.23-2,1.2,2.36,4.77,4.72,10.93.56,15.33-.32-.37-.61-.15-1-.33-.42.18,0,.61,0,.88.14.1.42,0,.42.23-.32.24-.74.56-1.11.33-.18.18,0,.55-.33.69.18-1-.64,0-.64-.78l-.47.41c.56.32.33.69.23,1.11-.6.24-1-.79-1.43-.42-.18.42-.6-.09-.46.56l.46.42c-.28.55-1,.37-1.44.55.05,0,.15-.09.09-.18-.64-.09-1-.42-1.57.09l.47.56c-.47.5-.51-.61-.88.09-.7-.47-1.53-.14-2.45-.09-.61.46-1.21-.93-1.76,0,0-.14,0-.38-.15-.47l-.56.23c.48-1-1.33-.23-.55-1.1-1-.1.24-.84-.88-.89l.24-.23c-.47-.09-.56-.83-1.26-.64.42-.28-.41-1.3.7-1.26v-.18h-1.25a.62.62,0,0,0,.55-.23c0-.14.05-.28-.09-.32l.56-.38c-.19-.18-.51,0-.79-.09.28,0,.56,0,.7-.23l-1-.09a.25.25,0,0,0,.23-.14.5.5,0,0,0-.7,0l.14.37c-.55.28-.42-.42-.87,0-.84,2.36-1.62,5.74-4.68,6.2-1-.65-1.81.37-2.92-.46-2.4.14-4.3-2.41-6.67-2.09-.6-1.2-1.7.15-2.22-.88l-.1.33-.08-.14-.23.46c1.52,3.39,3,7.18,2.22,11.12,2.78-.32,5,1.62,7.08,3.24,1-1.25-.56-2.92-.19-4.44-.64-.7-.6-1.9-.92-2.78.37-.61-.28-.79-.18-1.35-.1-1-.1-2.27,1.1-2.45,2.78.32,2.27,3.57,3.43,5.33.93,5.09,2.42,10.83,1.34,15.88a4.56,4.56,0,0,1-2.36,2c-.28.61-1.2.74-1.85,1-4.16,0-6.43-4.12-10-5.33-2.4,3.29-2.59,8.71-7.13,10.23-1.2,1-2.77.23-4,.79-1.11-.14-2-.74-3-.79-.51-.87-2.28.42-2.14-1.11-.5-.28-1.66.51-1.53-.55-.18-.37-.36-.09-.55,0a2.72,2.72,0,0,1-1.25-.47,4.13,4.13,0,0,0-1.2-1.75l-.14.09c.05-.42.23-.46-.32-1l-.23.18c-.29-.28-.74-.6-.65-1.11a.21.21,0,0,0,.23.14l.09-.14c-.56,0-.28-.88-.65-1.2.14-.05.09-.23.09-.33l-.41-.23c.69,0,0-.65,0-1l.18.23a2,2,0,0,0-.32-1.52c.05.18.32.32.46.55.24-.51.65-1,.09-1.48,0-.19,0,.37.24.23l.23-.88c0,.09.05.19.09.23.33-.41-.09-1-.09-1.57l.42.46c.13,0,.13-.23.13-.32.32.18.61.88,1,.64-.33-.37-.74-1-.42-1.43l-.46-.55c0-.23.37.46.55.23l-.41-.93c-.06.14,0,.19.08.23s.29,0,.33-.09v-.23h.23c-.18-.14.1-.88-.46-.88v-.24l1.11.79c.23-.69-.23-.46-.65-.88,0-.18.24-.37,0-.46-.23.24-.7.28-.78.65-.74,0-1.44.74-2.22.93-1.91.41-4.13.69-5.88-.24a7.39,7.39,0,0,1-1.67-2.12c-.33-.24-.61-.65-.33-1,.51-.41,0-1.38-.23-2-.28.38.09.66-.32.79.09-.92,1-2,1-3.19-.14-.47-.74-.1-.74-.14-.28-.7.51-1,0-1.53-1.57-.23-1.95,1.71-3.47,1.53-1,1-2.41.83-3.57,1.43.42,1.35,1.25,2.87,1.25,4.35.37.84-.88,2.37.65,2.32s3.33-.74,4.44.37a8,8,0,0,1,1.35,3c-.47,1.81-2.22,2.92-3.33,4.36-2-.14-4.27-.75-6.35.09a62.7,62.7,0,0,1-8.19,2.13,6,6,0,0,1-4.13-2.13,12.06,12.06,0,0,0-.55-2.32l.23.33.19-.23c-.37-.56-1.15-1.11-.42-1.76a1.47,1.47,0,0,0,1.21-1c.05-.1,0-.14-.09-.19s-.33.09-.47.19c0-.6-.14-1.3.32-1.76,1.25.37-.13-1,.79-1.34-.88-.7-2.46-.51-3.56-.56-1.63-.27-3.48-.18-4.77-1.34-.79-.19-1.9-.32-2.22-1.21l-.1.1a6.49,6.49,0,0,1-2.22-2.23c.09.1.42-.18.65.14.32-.23-.09-.46-.09-.69-.14,0-.19.1-.24.14,0-.65-2-.32-1-1.44-.13-.14-.13-.51-.41-.37l-.14.14a9.93,9.93,0,0,1-2-5.24c.65-.51.65-1.24,1.25-1.89l-.23-.23c.69.09.79-1.07,1.44-.89l.23-.23c-.15,0-.15-.18-.15-.32.24-.19.7-.14.56-.55.32-.19,1.11.13.93-.56.23.32.51-.1.74-.1v-.13h.23a.39.39,0,0,0,.14.37c.14,0,.19-.14.32-.24l-.13.1.23.23c.69-.33-.14-.93.69-1.11.09.46.69.09.74-.23.05-.09-.05-.14-.09-.23l.88-.65c-.23.18,0,.51.23.55.73-.6.18-.74.32-1.43h-.55s.13-.14.13-.23-.41,0-.55.23v.09h-.14c-.09-.56.6-.28.69-.65,0,.51.65.37,1,.56v.09a1,1,0,0,0,.79-.56c0-.13-.15-.23-.23-.32l-.24.23c-.14-.32.24-.32.37-.46a4.45,4.45,0,0,0,2.09-.33h.23c0,.1.05.28-.09.33.55.65,1-.79,1.66,0l.18-.23V103c.75.27.47-1.12,1.35-.33.32-.55.69-.79,1-.69a1.61,1.61,0,0,0,.42.69c.38-.51.24.47.56,0l-.18-.46a3.62,3.62,0,0,1,.09,2.22c-.37,4.21-10.28,7.78-3.34,11.35a2.48,2.48,0,0,0,1.91.09c.41-1,1.1.1,1.75-.09,1-.18,1.53-.93,2.54-1.11,1.49-.88-.36-1.82-.09-2.92-.32-1.48-1-3.34.24-4.54-.15-.7.41-1.11.65-1.67.14,0-.42.46-.1.65.42,0,.28-.51.42-.74.08.19.42.14.56.42-.19-.37.51-.56.55-1l.55.1v-.1c.24.1,1-.83,1.49-.46s1.29-.88,1.43-.32c.38-.84-.78-.42-1.11-.79-5.6-.74-11.66-3-13.1-9.12-.74-2,.6-4.12,1.85-5.78,1.3-1,2.18-1.26,3.47-2.32-1-1.67-3.37-2.46-4.11-4.21-.89-.19-1-1.63-1.58-1.91-1.57-2.82-.83-6.33,1-8.79,1.75-2,3.93-4.63,6.67-5,1,.42,2-.37,2.77.7h.33c-.23.83,1.15.51.69,1.52,1.16-.41,1.3,1.53,2.22,1.25.05.56.88.88,1.2,1.21.19-.38.33-.1.56,0l.24-.33c.13.23.13.6.41.79.09-.14.23-.14.37-.14-.14,0-.18.09-.23.14s.14.23.23.32c.46.14.19-.37.42-.55-.09.37.56.74.79.79-.05.37.37.09.32.23s-.1.18-.1.32c-.14-.05-.27-.46-.55-.32l-.14.41-.09-.09-.23.23c0,.28.32.33.56.33s.13-.24.13-.33c-.28,1.57-1.89,2.13-3,3.43a4.8,4.8,0,0,0-1.8,1.43L209,77.4c-.47.51-1.08,1.53-1.77,1.44l.1.09-.56.55-.23-.18c-.09.09-.28.13-.23.32s.23.1.37.1l-.14.14c1.67.69,3.29,2.26,5.32,1.85.28,1.25,2.22,1.11,1.81,2.68a6.51,6.51,0,0,1,.79.55c-.74,1.26,1.53,2.14.74,3.66a3.25,3.25,0,0,0,.13,1.11.62.62,0,0,0-.22-.55c.55,1.81-.38,3.84-1.34,5.46a15.15,15.15,0,0,1-2.79,2c3,.79,6.25,2.14,9.22,1.44a2.24,2.24,0,0,1,1.48.55c1.57,1.16-.65,4.17,2.4,4.22l.15.37-.15-.14c-.13,0-.08.23-.08.32.55.42,1.39.51.78,1.35-1.3,1.15-3,.13-4.35.46-1.57-.74-3.61-.37-5.32-.79-.1,1.44.65,2.55.46,4l.32.7.1-.14a2.09,2.09,0,0,0,1.43,1.66l.23-.41.32.32c.24-.09.1-.32.15-.46a.54.54,0,0,0,.88-.42c-.05.1,0,.14.09.23.64,0,.09-.78.69-.92.09.23.14.6.56.46l-.14-.55c0,.09.09.18.14.23-.05-.84.83-.56,1.2-1,0,.83.46-.14.79,0l-.33-.33c.74.1,1.07.7,1.44-.22-.09-.42,1.24,0,1.57-.79l.19-.19-.1-.14c.79-.18,2.46-.74,3.66-.23,3,1.76,3.48,5,3.48,8.25.41.69,1-.42,1.21.09a37.41,37.41,0,0,1,3.56-3.2c1.24-1.53,1.94-3.93,2.87-5.88a2.38,2.38,0,0,1,2.53,0,2.5,2.5,0,0,1,.93,2.78c-.69,1.34-.46,2.64-1.48,3.89a9.26,9.26,0,0,0-1.29,1.76,7.17,7.17,0,0,0,7.54-.88l.65-.69c-.93-3.48-2.09-6.63-3.1-10.1a5.8,5.8,0,0,1,2.68-5.23c4.17-1.94,8.06,1.53,12,2.45l.65-.09a53.73,53.73,0,0,0-8.75-6.9c-.83-.09-1.58.65-2.22.23,0-.18.23-.37,0-.46s-.23.37-.56.23c-.42-.83-1.29-1.48-.79-2.55,1.12-1.25.61-3.28.89-4.67-.38-2.36.05-5.28-1.34-7.36-.79.64-1.63.13-2.32,1l.23.23-.46.23-.23-.93c-.74-.13-.79.7-1.44.79l.23-.41c-.32,0-.69-.42-1-.15-.74,1.26-1.52-.46-2.45.24-.41,0-.69-.24-1-.56-1.9.93-3.1-1.06-4.12-2.13-1.71-2.36-1.11-5.88.33-8.19.18-.6-.28-1-.43-1.44a2.15,2.15,0,0,0-2.11,1.11c-.19-.14-.57-.65-.8-.14l-.23.24c-1.11-.79-2,1.24-3.52,1.34-1,1-1.16,2.22-2.59,2.64-.88-.33-1.3-.14-2.08-.65-1-.47-2-.74-2.37-1.9-1-1.3-.64-2.92.14-4.21a78.51,78.51,0,0,1,10.24-4.77c.41-.6,1.29-.19,1.75-.79,3.15-.65,7.14-.09,9.45,2.13.36.88,2,1.34,1.57,2.55,1.25.23,1.16,2.08,1.3,3,0,.6-.42,1.48-.1,1.85h.33c-.28.74-.79,1.62-.42,2.36,1.67.79,3.61-.14,5.42.32a.42.42,0,0,0,.69.33c.1-.23.46,0,.42-.33l-.1-.09c.56.14,1.67.09,1.53.88-.18,0-.41-.09-.55.09a.48.48,0,0,0,.37.56c.37-.23.83-.14.65-.88.46.23-.1,1.29.64.65-.13,0-.09-.19-.09-.33.23.74,1.71.51,1.67,1.67.92-.37,1.47,1.07,2,1.67s1.2,1.52.56,2.36c1,.51.27,1.39.55,2.22-.05.46-.32,0-.55.33s.46.64.32.87c.14.19.37.1.55.1.28.69-.92.83-.64,1.66-.56.14-.84.79-1.44,1,0,.23-.42.42-.69.46a.49.49,0,0,0-.56-.23l-.09.1.32.46-.23-.24c-.18.24-.27.66-.56.79V85.5c-1.24-.51-1.94.88-3.1,1.35.05-.14-.05-.19-.09-.24-.69.88-.84-.78-1.44-.09-.13.14-.36.23-.36.42,6.25,3,12.59,6.39,17.36,11.81.55,1.1,1.53,1.71,1.76,3A101.29,101.29,0,0,0,280,97.4l.34-.46a.34.34,0,0,0-.15.23c.24.14.51-.23.79-.33.05-.13,0-.18-.09-.23h-.14a3.71,3.71,0,0,0,1.48-1.67c.28-1.38-.56-2.26-.56-3.65-1.06-.93-1.06-2.5-1.89-3.56-.42.37-.14,1.11-.7,1.34.56.37-.51.78-.18,1.34l-.14-.14a25.81,25.81,0,0,1-3.57,5.23c-1.29.42-2.08,2.18-3.66,2-.23.13-.46-.56-.55,0h-.23c0-.1.1-.15.14-.24-.28-.23-.75,0-1-.18l-.32.09c.14,0,.36-.42,0-.56l-.23.23c-.28-.27.14-.87-.33-1-.92-.09-1.34-1.07-2.13-1.67,0-.14-.18-.09-.33-.09s-.09.23-.09.32c-.28,0-.41-1-.88-.55h.09a2.62,2.62,0,0,0-.22-.88L265,94.39c-.92-4.49,3.2-7,4.87-10.46l-.23-.18-.09.09c-.83-.61-1.86-.52-2.32-1.44-1.34.56-2.59-.46-3.79-.88a1.54,1.54,0,0,0-1-1.58c-.41-.36-.51-1.15-1.2-1.43-1.2-2.5-.18-4.9.47-7.45.46-1.53,1.8-2.59,3-3.66a1.14,1.14,0,0,0-.19-1.25c-.79,0,.14.65-.69.56-.28.23-.38,1.06-.88.55-.14-.23-.14-.55-.47-.74-.45.42-.41-.37-.73-.46l-.24.23v-.14c-.27-.23-.55,0-.79.14,0,.14.15.23.24.32h.23c.14.75-.65.37-1.11.33s0-1.53-1-.88v.23c-.51.28-.37-.6-.78-.14v-.09a6.5,6.5,0,0,0-2.88-.09l.24-.24c-.47,0-.93.6-1.49.1a4,4,0,0,1-3-.42,2.56,2.56,0,0,1-.37-2.22c.37.09.6-.28.92-.47-.92-.32-1.38-1.48-1.8-2a4.22,4.22,0,0,1,3-.13c5.27-.88,9.81-.61,15.23-.19-.33-2.64.69-5.6-.56-8.15a1.73,1.73,0,0,0-1.66-.74c-.33.23-.84,0-1.11.19v-.09c-.46.46-1,.46-1.25.78-1-.55-.7.69-1.76.1-.38.69-.88-.37-1.2.22,0,.19.27.1.41.1-1,.23-1.71,1-2.87.69l.1-.14c-.06-.14-.24-.09-.33-.09.05,1.06-1.16-.32-1.11.79-.33-.65-1.76-.28-2.55-.79a3,3,0,0,1-1.8.56c-.19,0,.41-.05.23-.33s-.51-.18-.79-.23,0,.32-.1.46a1.93,1.93,0,0,1-2.12-1.24c-1.71-3.76,2-6.76,3.24-9.78h-.65c.19,0,.42.1.56-.09V42.4c-1.21-.42-.61,1.39-1.9,1.11.09-.18-.14-.32-.24-.46-.22.28-.6.09-.78.46.14.09.18.28.32.23l.24-.23.14.09a11.25,11.25,0,0,0-1.91.88c0-.19.1-.41-.13-.55-.15.09-.1.23-.1.36a.37.37,0,0,1-.22-.13c-.28.18.08.37.13.46a11,11,0,0,0-2.45,1.67c.55,1.2,2.32,1.34,2.08,2.87.93.42-.09,1.25.69,1.66-.18.28-.59-.64-.87,0,.46.61-.09,1,.09,1.58-.18,0-.23.14-.32.23.65.56-.7.79-.56,1.53l.32.23c-.23,1.07-1.57.83-1.89,1.67l-.24-.23c0,.41-.27,0-.41.23.14.92.78-.05,1.34.09.05,0,.14-.09.09-.19s-.09.7-.65.56l-.23.19.1.14a1,1,0,0,0-.89.41l.65.14c0,.09.09.14.14.23l.33-.46c.41.41-.28.46-.47.65l-.09.14c.33.51.74,0,1.11,0a2.92,2.92,0,0,1-3,.78c-4.16-.88-5.78-5.65-9.53-7.12l-.32.64c0-.09-.09-.13-.14-.18-.79.14-.65.83-1.21,1.29v.7l-.13-.14c-.74.69-.7,2.22-1.86,2.36-.37,1.81-1.94,2.82-3.23,4.12a7.38,7.38,0,0,1-6.91-2.13l-.32.33c-.09,2.26-2,5.41.46,7,.19,1.53.33,3.11-.69,4.36a2.82,2.82,0,0,0-2.22,1.34l-.33-.32c-.51.55-.65,1.15-1.57,1.11-.42-1.16.92-1.81.37-3-.51-.6-1.62-.6-1.57-1.58a107.4,107.4,0,0,1,2-14.77c.09-.27.41-.46.46-.78-1.39-.19-2.68-.65-4.12-.79a9.27,9.27,0,0,1-4.12-3.42c-.65,1,.27,2.12.13,3.09s1.12,1.63.19,2.55c-.05,1.21.65,1.76.7,2.92a1.56,1.56,0,0,1,.55,1.9c-.74.09-.69.92-1.25,1.29.47.33.93,0,1.34-.09-1.9-.46-1.8,2.69-3.88,1.76,0,.14-.24.14-.33.14l-.23-.69c-2.18.69-4.77-.05-6.35,1.66-1.47,4.68-5.74,9.17-10.87,9.82.32.78-.28,1.94.88,2.4l.46.93c-.09.23,0-.32-.32-.23-.65,1.34,1.57.88,1.11,2.46a2.28,2.28,0,0,0,.65,1.29c.13,0,.27,0,.32-.09V78.6c.74.7-.55,1.72.69,2.46.89.55.6,1.9.65,2.78a9,9,0,0,1-4.86,6c-.09.24.05.84.42.88,1.81,2,3.23,4.49,6,5.1.59.37.65,1,.78,1.57a3.36,3.36,0,0,1-1.67,2c-6.75-.46-11.19-6.34-15.22-11.43a7.53,7.53,0,0,1-.14-7.22,7.73,7.73,0,0,1,5.92-2.46l.32-.33c-1.66-4.21-4.62-9.48-1.57-14a9.08,9.08,0,0,1,4.68-2.22c.32-.6,1.66-.28,2.13-1a2.58,2.58,0,0,0,2.22-1c1.76-2.18,1.71-5.24,4.3-7l.15.1,1.2-1c0,.09,0,.28.09.32l1-.65c.09.19.37.51.09.74a1.09,1.09,0,0,0,.93.24c.14,0,.09-.24.09-.33.55.18.7.88.78,1.43.14,0,.24-.18.42-.09.33-.32-.09-.46.15-.79.54.65.83.19,1.34,1.12-.38.09-1.07-.28-1.34.32.64.14,0,.79.09,1l1.25.32c-.24,0-.47-.09-.56.1.56.18.46,1.38,1.29.78.15-.14.61.14.56.47-.09-.05-.14,0-.19.09v.14h.42c.28-.42-.23-1.12-.23-1.67l-.65.09.09.33c-.5.37-.32-.56-.55-.88.14-.33-.18-.33-.32-.47l-.33.14.09-.23c.24.37.47-.23.56-.23-.05.56.55.37.79.56V55c-.15,0-.37-.09-.41.09.13.23.45,0,.64.23V42.17c.23-1.71.37-3.52,1.9-4.54.14-1.25,1.76-.78,2.55-1.34,2.86-.14,5,2.41,6.75,4.31.69.55,1.21,1.66,2.13,1.57,1.58-1.07,1.48-3,2.23-4.54.36-.41,1.06-.14,1.2-.78s-.7-.47-.19-1,.47-1.16.65-1.76c.18,0,.23-.14.32-.24.42.37.37-.18.7-.32-.28-.69.42-1.16.65-1.43.09,0,.18,0,.23.09a4.32,4.32,0,0,1,3.33-2.55,6.77,6.77,0,0,1,4.68-.79ZM238.69,38l-.14.41.23-.18C238.83,38.05,238.74,38,238.69,38Zm-1.25.87v.33c.14,0,.14-.23.14-.33Zm.14,1.77-.33-.33.19.46Zm-12.36,2.59-.1-.37.1.23Zm28.33,3.51c-.28-.14-.15-.27,0-.55Zm-54.77,7.14.32.09Zm.23,1c.61,0,.14.5.24.74s-.18-.1-.15-.19l.24-.23c-.09-.28-.56.09-.56-.32s.42-.42.7-.38Zm1.21,0h.13v-.38h-.13Zm9.44.74V55l.14.56Zm-8.74.23v.23h-.47l.23-.33C200.73,55.78,200.77,55.87,200.92,55.83Zm-.8.69h.23c.06-.09.14-.14.1-.23S200.12,56.38,200.12,56.52Zm2.23.09c.18.37-.42.75.09.88-.14.14-.14.47-.42.33-.14.14-.46,0-.32.37l.32-.37c.1.09.14.28.33.23A2,2,0,0,0,202.35,56.61Zm.55.56c-.46.74.75.6.79,1.2-.7.33,0,.28-.14.79.56-.37-.14-1.34.7-1.11l-.47-.56v.14C203.78,57.4,202.72,57.63,202.9,57.17Zm-1.89.09h-.42l.55.14ZM205,60l-.14-.32H205Zm60.74,6.11c.05.14,0,.18-.1.23h-.22v-.32C265.49,66.2,265.67,66.15,265.77,66.15Zm-2.87.14c-.19.14-.65.23-.65-.14ZM275.36,71a.85.85,0,0,1-.79.32c-1.35,1.94-3.66,3.33-4.78,5.55,1.34.38,2.47,1.21,3.76,1.67,1.16.92,3.66,1.39,3.47,3.34.14,0,.23-.14.33-.24.69-.46.87.65.78,1-.14-1.71,1-2.82,1.53-4.26-1.58-1.39-3.62-2.87-4.22-5.09a2.9,2.9,0,0,1,.7-3.24C275.63,70,274.88,70.41,275.36,71Zm-29.68.18h-.23l.13-.32C245.72,70.87,245.68,71.06,245.68,71.15Zm-32.31.7-.14.32Zm.32,1.34h-.32l.09.19Zm44.54,3.42c-.06.23,0,.65.31.56v-.33C258.59,76.66,258.41,76.57,258.23,76.61Zm-12.32,1h0ZM208.36,78l-.37.33Zm25.56,1.21c-1.9-.88-3.7.32-5.69.23-.47.14-.84.65-1.43.47-.93,1-1.21,2.77-2.47,3.33L224.1,83a.82.82,0,0,0-.41,1c1,1,2.69.46,3.43,2,1.25.75,1.43-1.47,2.36-.23-.09.56.18,1.35-.23,1.76-.7.05-1.35.37-1.67.14-.32-.46-1-.09-1.44-.37-1.76-.83-1.89,1.53-3.56,1.12-1,.78,1.52,1.61-.14,2.22-.05,1.24.83,2,1.34,2.77,1.81.37,1,2.37,2.69,2.78.41.32,1.25-.18,1.43.46,1-.46,2.46.47,3.43-.32.83.69.41-.88,1.34-.32,1.39-.52.14-1.07.56-1.9.55,0,.32.55.69.78.7.42.41-.23.89-.55s.41.64.77,0c0-.23-.22-.33-.36-.46a1.7,1.7,0,0,1,1.48-.56c-.09-1.34-.51.37-1.12-.32.7-1,2.23-1.58,2.09-3-.23.27-.6-.56-.79-.1-.09-.41.19-.69.37-1,.1,0,.29,0,.33.09l-.14.14.37.41c.28.19.28-.41.65,0,.42-.18.18-1,.09-1-.28.36-.37-.29-.65-.24.14-.32.14-.74.46-1,.19.19.42.56.33.79a15.16,15.16,0,0,0-.23-4.54c-.65-.46-.46-1.62-1.43-2.13a.67.67,0,0,0-1,.47c-.1,0-.28,0-.33-.14.33-.33-.18-1.16-.32-1.53l-.69.23C234.43,80,234.33,79.43,233.92,79.16Zm9.63.14c0,.18-.33,0-.56.09A1.2,1.2,0,0,1,243.55,79.3Zm15,2.31c.15,0,.15-.23.15-.32,0,.09-.05.28.09.32h-.42v-.32Zm-21.29,1.67c.19.09.29.47.56.32v-.23C237.81,83,237.11,82.49,237.25,83.28Zm-.55-.23-.23.23.23.23c-.09.09-.28.14-.23.33-.14-.38.69.32.41-.47C237,83.1,236.75,83.23,236.7,83.05Zm1.66,2.13-.13.09-.23-.65C238.32,84.72,238.41,84.85,238.36,85.18Zm-.92-.46v1.11c-.14.18-.56,0-.41.46.27-.14.36.19.64.09A5.15,5.15,0,0,0,237.44,84.72Zm1.11,1.57v.32c-.28.14-.32-.23-.32-.46C238.36,86.15,238.51,86.15,238.55,86.29Zm-1.3,5.55,1-2A3,3,0,0,1,237.25,91.84ZM235.91,91c-.13.27-.69.73-.23.87l.23-.22.24.46.55-.79.09.09C236.88,90.64,236,91.43,235.91,91Zm-1,2.31.69.09C235.73,92.91,235,92.91,234.89,93.28Zm39.58,9.21.1-.41.55.09Zm-79,.79H195C195.17,103.33,195.36,103.05,195.45,103.28Zm77.77.23-.23-.32-.09.56Zm-2,.33c0-.09,0-.19-.1-.24l.42-.09Zm-79.9,1.57.13-.56-.13.19Zm4.12-.46H195l.19.23Zm-3.1.09c-.1.14-.33.37-.47.14-.18.19-.6.56-.42.65Zm1.2,1.11h-.42v.23h-.22C193.09,105.92,193.23,105.55,193.55,106.15Zm-1,0-.56.37h.33C192.44,106.38,192.62,106.33,192.58,106.15Zm-1.9,1.11c-.32,0-.46,0-.55.37-.47.09-.6.42-1,0l.14.09-1,.65c1,0,1.43-.69,2.45-.87Zm-.55,1.11-.09-.18h.32Zm-2,1.12c-.28.41-.33.18-.7.36C187.39,109.2,188,109.58,188.14,109.49Zm49.67,1.25-.56.64Zm-50.55.41c-.24,0-.56.09-.56.37H187l-.14-.14Zm52.64,4.36c-2.32,1.43-2.87,4-5.23,5.65-.29.69-1.39.69-1.44,1.57.46-.14.28.46.32.55v-.22c.1,0,.14-.14.23-.09.79.69,2.37,1.52,2.23,1.66a39,39,0,0,0,3.89,2.45c.42,0,.92.33,1.11.33,1.38.92,2.58.83,4.34,1,1.58.09,1.94-1.3,2.78-2.32-.46-.87.83-.69.88-1l.09.14c.37-.19.23-.56.37-.79-.65,0-.51-.46-1-.79l-.64.33v-.33h-.47l.24.46c-.05.14-.24.1-.33.1s-.09-.37-.14-.56h-.23c-.42.28.37.74-.32.7-.33,0-.37-.42-.33-.7-.32.14,0,.14-.23.33-.79.23,0-.47-.55-.56.09-.1.27-.14.23-.32-1.86.69-1.48-1.11-3-1.44.32-.32-.32-.46-.32-.79l-.23.23c-.51-.55-.79-.6-.65-1.34h-.24a.42.42,0,0,1-.32-.55c-.83.46-.32-1-1.11-.79,0-.28.32-.7.65-.65.09-.32-.28-.46-.42-.65.09-.09.14-.28.33-.23Zm5.31,7.22c-.18.46-.55,0-.88.09l.14-.42C244.71,122.5,244.8,123.1,245.21,122.73Zm1.9.65s-.42-.28-.09-.41l.32.22Zm-13.33.37c.05.14,0,.46.23.56v-.37C234.06,123.84,233.92,123.66,233.78,123.75Zm.79,1c.19.33.32-.14.56,0C235,124,234.62,124.86,234.57,124.72Zm-1.34.56c-.23-.14,0-.32.14-.42Zm15.13,1.34.09-.65v.56Z" transform="translate(-25 -28.74)" style="fill:#663399"/></svg>
